<svg id="Group_343" data-name="Group 343" xmlns="http://www.w3.org/2000/svg" width="190" height="35.119" viewBox="0 0 190 35.119">
  <path id="Path_65" data-name="Path 65" d="M284.4,201.342V166.223h9.9l7.844,27.428,7.844-27.428h9.946v35.119h-5.742V172.529h-.77l-8.3,27.378h-5.948l-8.305-27.378h-.769v28.813Z" transform="translate(-250.667 -166.223)" fill="#cb001a"/>
  <path id="Path_66" data-name="Path 66" d="M378.3,166.223l7.537,13.843,7.64-13.843h6l-10.407,17.842,10.407,17.277h-6.358l-7.536-13.227-7.691,13.227h-6l10.459-16.97-10.459-18.149Z" transform="translate(-267.255 -166.223)" fill="#cb001a"/>
  <path id="Path_67" data-name="Path 67" d="M409.407,171.2v-4.973h23.071v5.486l-16.3,23.686v.973h16.3v4.973H409.407v-5.435l16.252-23.686V171.2Z" transform="translate(-274.367 -166.223)" fill="#cb001a"/>
  <path id="Path_68" data-name="Path 68" d="M262.769,166.223h-11.33l-8.664,35.119h5.691l1.9-7.536,1.128-5.024,4.357-17.79h2.564l4.307,17.79,1.128,5.024,1.9,7.536h5.742Z" transform="translate(-242.774 -166.223)" fill="#cb001a"/>
  <path id="Path_69" data-name="Path 69" d="M354.436,166.223H343.106l-8.664,35.119h5.691l1.9-7.536,1.128-5.024,4.357-17.79h2.564l4.307,17.79,1.128,5.024,1.9,7.536h5.742Z" transform="translate(-260.154 -166.223)" fill="#cb001a"/>
  <path id="Path_70" data-name="Path 70" d="M461.793,166.223H450.462L441.8,201.342h5.691l1.9-7.536,1.128-5.024,4.357-17.79h2.564l4.307,17.79,1.128,5.024,1.9,7.536h5.742Z" transform="translate(-280.509 -166.223)" fill="#cb001a"/>
</svg>
